<?xml version="1.0" encoding="UTF-8"?>
<svg xmlns="http://www.w3.org/2000/svg" viewBox="0 0 800 200" width="800" height="200">

<path d="M 705.4825018285997 19.475166378069396 C 705.4825018285997 19.475166378069396 707.648043455916 19.840192233024425 705.4825018285997 19.475166378069396 C 703.3169602012833 19.110140523114367 701.151418573967 18.74511466815934 698.9858769466507 18.38008881320431 C 696.8203353193344 18.01506295824928 701.3156767544992 18.781624904246236 698.9858769466507 18.38008881320431 C 696.6560771388022 17.978552722162384 694.3262773309535 17.577016631120454 691.996477523105 17.175480540078528 C 689.6666777152565 16.773944449036602 691.996477523105 17.175480540078528 691.996477523105 17.175480540078528 C 691.996477523105 17.175480540078528 694.4412476680351 17.60257500487704 691.996477523105 17.175480540078528 C 689.5517073781749 16.748386075280017 687.1069372332449 16.321291610481506 684.6621670883148 15.894197145682995 C 682.2173969433848 15.467102680884484 686.8084309627641 14.689764313225142 684.6621670883148 15.894197145682995 C 682.5159032138656 17.098629978140846 680.733936463123 19.949213000404995 678.2233754649671 19.50749564305655 C 675.7128144668113 19.065778285708106 677.494781217554 16.215195263443956 677.1304840938474 14.569045073637659 C 676.7661869701408 12.922894883831361 678.8624491993388 13.76881897734573 677.1304840938474 14.569045073637659 C 675.3985189883559 15.369271169929588 674.4618229542499 17.41513794406257 671.9345887773732 16.969723362513445 C 669.4073546004964 16.52430878096432 671.7057763467209 13.954402039591043 669.5487815632172 13.232801328990277 C 667.3917867797135 12.51120061838951 667.9584355364819 15.243114120978518 665.463604426862 14.804921230711146 C 662.9687733172422 14.366728340443775 664.2325931034213 12.524211777711402 662.0642882343574 11.918222658188164 C 659.8959833652934 11.312233538664925 659.9938892912327 12.630710134157008 658.9586898196703 12.98695387214143 C 657.923490348108 13.343197610125854 660.3368771395337 13.763255561932171 658.9586898196703 12.98695387214143 C 657.5805024998069 12.21065218235069 656.9543256408427 11.157281895866857 654.82412786008 10.658048802769212 C 652.6939300793173 10.158815709671567 654.8510375258462 11.880270515306956 652.5680964773823 11.489254592848496 C 650.2851554289183 11.098238670390037 650.0179954114736 9.886428980825587 647.975304714688 9.485001035393834 C 645.9326140179024 9.083573089962082 646.9517844962463 10.01831418283344 646.4400243870255 10.284970756553241 C 645.9282642778046 10.551627330273043 648.0318188887593 10.902702807253348 646.4400243870255 10.284970756553241 C 644.8482298852916 9.667238705853133 643.5704353357249 8.744410835171664 641.6646408818241 8.431774604452919 C 639.7588464279232 8.119138373734174 642.5973807381449 9.650958756945506 640.7226410253228 9.347062064397006 C 638.8479013125007 9.043165371848506 637.6011615040128 8.129077039337279 636.0404217433578 7.520084526807415 C 634.4796819827028 6.911092014277552 637.6368022359246 7.773273652777175 636.0404217433578 7.520084526807415 C 634.444041250791 7.266895400837655 632.8476607582242 7.0137062748678956 631.2512802656573 6.760517148898136 C 629.6548997730905 6.507328022928376 631.2512802656573 6.760517148898136 631.2512802656573 6.760517148898136 C 631.2512802656573 6.760517148898136 632.4944657646919 6.409179075817421 631.2512802656573 6.760517148898136 C 630.0080947666228 7.111855221978851 628.7943089106334 7.99535662599252 627.5217237685536 7.81453136814028 C 626.2491386264737 7.633706110288039 628.2957058112281 6.272285546546921 627.4335248394179 6.218041375341413 C 626.5713438676078 6.163797204135906 625.767962181888 7.173879694796309 624.9351808531231 7.651798854523757 C 624.1023995243582 8.129718014251205 625.0085901315792 8.227627870082207 624.9351808531231 7.651798854523757 C 624.861771574667 7.075969838965306 625.1821071743257 5.935351206045252 624.7149530177547 5.9243118078484045 C 624.2477988611838 5.913272409651557 623.928027327821 7.655420046787094 623.5337183834104 7.618680659933215 C 623.1394094389997 7.5819412730793365 623.5325902508187 6.415622651502251 623.5320261845228 5.814093647286769 C 623.531462118227 5.212564643071286 623.5320261845228 5.814093647286769 623.5320261845228 5.814093647286769 C 623.5320261845228 5.814093647286769 623.531462118227 5.212564643071286 623.5320261845228 5.814093647286769 C 623.5325902508187 6.415622651502251 623.1394094389997 7.5819412730793365 623.5337183834104 7.618680659933215 C 623.928027327821 7.655420046787094 624.2477988611838 5.913272409651557 624.7149530177547 5.9243118078484045 C 625.1821071743257 5.935351206045252 624.861771574667 7.075969838965306 624.9351808531231 7.651798854523757 C 625.0085901315792 8.227627870082207 624.1023995243582 8.129718014251205 624.9351808531231 7.651798854523757 C 625.767962181888 7.173879694796309 626.5713438676078 6.163797204135906 627.4335248394179 6.218041375341413 C 628.2957058112281 6.272285546546921 626.2943206283109 7.1756625476396625 627.5217237685536 7.81453136814028 C 628.7491269087963 8.453400188640897 629.9177307629486 8.027942347275603 631.1157342601462 8.134647836843264 C 632.3137377573437 8.241353326410925 631.1157342601462 8.134647836843264 631.1157342601462 8.134647836843264 C 631.1157342601462 8.134647836843264 629.632547858504 7.966399755722192 631.1157342601462 8.134647836843264 C 632.5989206617883 8.302895917964337 634.0821070634305 8.471143999085408 635.5652934650726 8.63939208020648 C 637.0484798667147 8.807640161327553 635.4069173723109 9.01249459800617 635.5652934650726 8.63939208020648 C 635.7236695578343 8.266289562406792 634.3213058899411 7.28419453207724 636.0404217433578 7.520084526807415 C 637.7595375967745 7.75597452153759 638.8479013125007 9.043165371848506 640.7226410253228 9.347062064397006 C 642.5973807381449 9.650958756945506 639.7588464279232 8.119138373734174 641.6646408818241 8.431774604452919 C 643.5704353357249 8.744410835171664 644.8482298852916 9.667238705853133 646.4400243870255 10.284970756553241 C 648.0318188887593 10.902702807253348 645.9282642778046 10.551627330273043 646.4400243870255 10.284970756553241 C 646.9517844962463 10.01831418283344 645.9326140179024 9.083573089962082 647.975304714688 9.485001035393834 C 650.0179954114736 9.886428980825587 650.2851554289183 11.098238670390037 652.5680964773823 11.489254592848496 C 654.8510375258462 11.880270515306956 654.0721173991808 10.935117399462307 654.82412786008 10.658048802769212 C 655.5761383209792 10.380980206076117 653.4459405402166 9.881747112978472 654.82412786008 10.658048802769212 C 656.2023151799434 11.434350492559952 656.5453030282446 12.566895920335114 658.9586898196703 12.98695387214143 C 661.3720766110961 13.407011823947748 659.8959833652934 11.312233538664925 662.0642882343574 11.918222658188164 C 664.2325931034213 12.524211777711402 664.3304990293605 13.842688373203485 665.463604426862 14.804921230711146 C 666.5967098243636 15.767154088218808 664.1018787147436 15.328961197951436 665.463604426862 14.804921230711146 C 666.8253301389805 14.280881263470857 667.3917867797135 12.51120061838951 669.5487815632172 13.232801328990277 C 671.7057763467209 13.954402039591043 671.1393197059879 15.72408268467239 671.9345887773732 16.969723362513445 C 672.7298578487585 18.2153640403545 669.8383265481751 16.123799268999075 671.9345887773732 16.969723362513445 C 674.0308510065712 17.815647456027815 676.1271132357691 18.66157154954218 678.2233754649671 19.50749564305655 C 680.3196376941652 20.35341973657092 676.3714672002085 18.639202902434878 678.2233754649671 19.50749564305655 C 680.0752837297258 20.375788383678223 681.9271919944845 21.244081124299893 683.7791002592431 22.112373864921565 C 685.6310085240018 22.980666605543238 683.7791002592431 22.112373864921565 683.7791002592431 22.112373864921565 C 683.7791002592431 22.112373864921565 682.3048369552085 21.32925425732467 683.7791002592431 22.112373864921565 C 685.2533635632777 22.89549347251846 686.7276268673123 23.67861308011535 688.2018901713469 24.461732687712246 C 689.6761534753815 25.24485229530914 688.2018901713469 24.461732687712246 688.2018901713469 24.461732687712246 C 688.2018901713469 24.461732687712246 687.0563709758717 23.75355241225676 688.2018901713469 24.461732687712246 C 689.3474093668221 25.169912963167732 690.4929285622975 25.87809323862322 691.6384477577727 26.586273514078705 C 692.783966953248 27.29445378953419 690.7749710025528 25.939736308688964 691.6384477577727 26.586273514078705 C 692.5019245129927 27.232810719468446 693.3654012682126 27.879347924858184 694.2288780234326 28.525885130247925 C 695.0923547786525 29.172422335637666 694.2288780234326 28.525885130247925 694.2288780234326 28.525885130247925 C 694.2288780234326 28.525885130247925 693.5961924747547 27.933298416815205 694.2288780234326 28.525885130247925 C 694.8615635721104 29.118471843680645 695.4942491207881 29.71105855711337 696.126934669466 30.303645270546088 C 696.7596202181438 30.896231983978808 695.6726997672529 29.754252985758264 696.126934669466 30.303645270546088 C 696.5811695716791 30.853037555333913 697.0354044738922 31.402429840121734 697.4896393761053 31.951822124909558 C 697.9438742783184 32.50121440969738 697.4896393761053 31.951822124909558 697.4896393761053 31.951822124909558 C 697.4896393761053 31.951822124909558 697.1617534897913 31.43069335043767 697.4896393761053 31.951822124909558 C 697.8175252624193 32.472950899381445 698.1454111487333 32.994079673853335 698.4732970350473 33.51520844832522 C 698.8011829213613 34.0363372227971 698.2211647795285 33.005376688432854 698.4732970350473 33.51520844832522 C 698.725429290566 34.02504020821758 698.9775615460849 34.53487196810995 699.2296938016036 35.04470372800231 C 699.4818260571224 35.554535487894675 699.2296938016036 35.04470372800231 699.2296938016036 35.04470372800231 C 699.2296938016036 35.04470372800231 699.004589377318 34.530840954248276 699.2296938016036 35.04470372800231 C 699.4547982258892 35.558566501756346 699.679902650175 36.07242927551039 699.9050070744606 36.58629204926442 C 700.1301114987463 37.10015482301846 699.9050070744606 36.58629204926442 699.9050070744606 36.58629204926442 C 699.9050070744606 36.58629204926442 699.6583280192862 36.057416043701856 699.9050070744606 36.58629204926442 C 700.1516861296351 37.11516805482699 700.3983651848094 37.644044060389554 700.6450442399839 38.17292006595212 C 700.8917232951584 38.701796071514686 700.3278920265442 37.62236622527181 700.6450442399839 38.17292006595212 C 700.9621964534236 38.72347390663243 701.2793486668635 39.27402774731274 701.5965008803032 39.82458158799305 C 701.9136530937429 40.37513542867336 701.5965008803032 39.82458158799305 701.5965008803032 39.82458158799305 C 701.5965008803032 39.82458158799305 701.1612036386863 39.247545157451 701.5965008803032 39.82458158799305 C 702.0317981219201 40.4016180185351 702.4670953635372 40.97865444907715 702.9023926051541 41.5556908796192 C 703.337689846771 42.13272731016125 702.302730608051 40.9456269702625 702.9023926051541 41.5556908796192 C 703.5020546022572 42.165754788975896 704.1017165993603 42.77581869833259 704.7013785964634 43.38588260768929 C 705.3010405935665 43.99594651704599 704.7013785964634 43.38588260768929 704.7013785964634 43.38588260768929 L 705.37464208767 42.64647996270609 C 705.37464208767 42.64647996270609 705.939078212628 43.231357850177304 705.37464208767 42.64647996270609 C 704.8102059627121 42.06160207523487 704.2457698377542 41.476724187763665 703.6813337127962 40.89184630029245 C 703.1168975878383 40.306968412821234 704.0831860505167 41.437001158221165 703.6813337127962 40.89184630029245 C 703.2794813750758 40.346691442363735 702.8776290373554 39.80153658443502 702.4757766996349 39.256381726506305 C 702.0739243619145 38.71122686857759 702.4757766996349 39.256381726506305 702.4757766996349 39.256381726506305 C 702.4757766996349 39.256381726506305 702.7669100856261 39.77709381844675 702.4757766996349 39.256381726506305 C 702.1846433136437 38.73566963456586 701.8935099276526 38.21495754262541 701.6023765416614 37.69424545068497 C 701.3112431556702 37.17353335874452 701.8332036688283 38.2075351744003 701.6023765416614 37.69424545068497 C 701.3715494144946 37.180955726969636 701.1407222873275 36.667666003254304 700.9098951601607 36.15437627953897 C 700.6790680329938 35.64108655582364 700.9098951601607 36.15437627953897 700.9098951601607 36.15437627953897 C 700.9098951601607 36.15437627953897 701.129602063944 36.67540418422713 700.9098951601607 36.15437627953897 C 700.6901882563773 35.63334837485081 700.4704813525939 35.11232047016266 700.2507744488105 34.5912925654745 C 700.0310675450271 34.070264660786336 700.2507744488105 34.5912925654745 700.2507744488105 34.5912925654745 C 700.2507744488105 34.5912925654745 700.5088432299054 35.13090158569575 700.2507744488105 34.5912925654745 C 699.9927056677155 34.05168354525324 699.7346368866206 33.51207452503198 699.4765681055256 32.97246550481072 C 699.2184993244307 32.432856484589465 699.8223575271874 33.53715276463102 699.4765681055256 32.97246550481072 C 699.1307786838639 32.407778244990425 698.7849892622023 31.843090985170125 698.4391998405406 31.27840372534983 C 698.0934104188789 30.713716465529533 698.4391998405406 31.27840372534983 698.4391998405406 31.27840372534983 C 698.4391998405406 31.27840372534983 698.920199080482 31.87302788153992 698.4391998405406 31.27840372534983 C 697.9582006005992 30.68377956915974 697.4772013606578 30.089155412969653 696.9962021207164 29.494531256779563 C 696.515202880775 28.899907100589473 697.6583941111891 30.125986543517598 696.9962021207164 29.494531256779563 C 696.3340101302437 28.86307597004153 695.6718181397711 28.231620683303497 695.0096261492984 27.600165396565462 C 694.3474341588256 26.968710109827427 695.0096261492984 27.600165396565462 695.0096261492984 27.600165396565462 C 695.0096261492984 27.600165396565462 695.8987548930419 28.279520903046492 695.0096261492984 27.600165396565462 C 694.1204974055548 26.92080989008443 693.2313686618113 26.241454383603404 692.3422399180678 25.562098877122374 C 691.4531111743242 24.882743370641343 693.5051387441863 26.303487177744795 692.3422399180678 25.562098877122374 C 691.1793410919493 24.820710576499952 690.0164422658308 24.07932227587753 688.8535434397123 23.33793397525511 C 687.6906446135938 22.596545674632686 688.8535434397123 23.33793397525511 688.8535434397123 23.33793397525511 C 688.8535434397123 23.33793397525511 690.3415952427187 24.149883960450417 688.8535434397123 23.33793397525511 C 687.365491636706 22.5259839900598 685.8774398336997 21.71403400486449 684.3893880306933 20.902084019669182 C 682.901336227687 20.090134034473873 684.3893880306933 20.902084019669182 684.3893880306933 20.902084019669182 C 684.3893880306933 20.902084019669182 686.25177652124 21.796187041061128 684.3893880306933 20.902084019669182 C 682.5269995401467 20.007980998277237 680.6646110496001 19.113877976885288 678.8022225590535 18.219774955493342 C 676.9398340685068 17.325671934101397 680.9211418538026 19.09528448360582 678.8022225590535 18.219774955493342 C 676.6833032643043 17.344265427380865 674.564383969555 16.468755899268388 672.4454646748059 15.593246371155912 C 670.3265453800567 14.717736843043435 673.5609119632395 15.562883211462688 672.4454646748059 15.593246371155912 C 671.3300173863722 15.623609530849135 671.276096052967 16.432576196364227 669.0991228095048 15.684335850235584 C 666.9221495660427 14.936095504106943 666.9760708994479 14.127128838591853 665.9145449444195 13.348525332769986 C 664.8530189893911 12.56992182694812 667.34061471106 13.043684919262944 665.9145449444195 13.348525332769986 C 664.488475177779 13.653365746277029 663.8223677892349 14.893617925753276 661.636335644498 14.263046573291113 C 659.450303499761 13.632475220828951 661.7620142787101 11.912334051980801 659.3564485102088 11.456811275383497 C 656.9508827417075 11.001288498786193 656.065241729399 12.416589254127299 654.4196383389941 12.8964782434992 C 652.7740349485892 13.3763672328711 654.9201256522783 13.898726007168287 654.4196383389941 12.8964782434992 C 653.9191510257099 11.894230479830112 655.1926290764258 10.316099351751383 652.9181763991415 9.889734952491935 C 650.6437237218573 9.463370553232487 649.653412049275 12.040892343246812 647.5962803071416 11.617385045720857 C 645.5391485650082 11.193877748194902 647.0299475508749 9.618603721849665 646.7467811727415 8.619213059914069 C 646.4636147946081 7.6198223979784725 648.5578105124057 8.006101683523216 646.7467811727415 8.619213059914069 C 644.9357518330773 9.232324436304921 643.2328375770504 10.792501557041907 641.3136931537491 10.458547189086627 C 639.3945487304478 10.124592821131346 642.8546305589546 7.948957314324773 640.9893479028375 7.617349956048228 C 639.1240652467204 7.285742597771683 637.450367131283 9.714393054070593 635.717845185398 9.46372511425699 C 633.985323239513 9.213057174443387 635.7671364385878 7.731472462490609 635.7917820651827 6.865346136607418 C 635.8164276917776 5.999219810724228 637.2885148687577 7.041935306053322 635.7917820651827 6.865346136607418 C 634.2950492616077 6.688756967161515 632.7983164580326 6.512167797715611 631.3015836544575 6.335578628269707 C 629.8048508508825 6.158989458823804 631.3015836544575 6.335578628269707 631.3015836544575 6.335578628269707 C 631.3015836544575 6.335578628269707 632.5133632522089 6.450301685445658 631.3015836544575 6.335578628269707 C 630.0898040567062 6.2208555710937565 629.0397146567473 5.392834934112285 627.6662448612033 5.991409456741856 C 626.2927750656593 6.589983979371427 628.0602227645121 8.1933898480266 627.1811742678256 8.131302196158419 C 626.302125771139 8.069214544290238 625.7464576700376 6.580531732811016 625.0290993711436 5.8051465011373145 C 624.3117410722497 5.029761269463613 625.1838815776259 5.1308524143147975 625.0290993711436 5.8051465011373145 C 624.8743171646613 6.479440587959831 625.0718569209865 7.846536442965226 624.5647527516968 7.828028761604866 C 624.0576485824071 7.809521080244506 623.9684144268266 5.8019705372177945 623.5077868632743 5.749623457056236 C 623.047159299722 5.697276376894678 623.2911756617847 7.030532833098872 623.1828700610398 7.67098752112019 C 623.0745644602949 8.311442209141507 623.1828700610398 7.67098752112019 623.1828700610398 7.67098752112019 C 623.1828700610398 7.67098752112019 623.0745644602949 8.311442209141507 623.1828700610398 7.67098752112019 C 623.2911756617847 7.030532833098872 623.047159299722 5.697276376894678 623.5077868632743 5.749623457056236 C 623.9684144268266 5.8019705372177945 624.0576485824071 7.809521080244506 624.5647527516968 7.828028761604866 C 625.0718569209865 7.846536442965226 624.8743171646613 6.479440587959831 625.0290993711436 5.8051465011373145 C 625.1838815776259 5.1308524143147975 624.3117410722497 5.029761269463613 625.0290993711436 5.8051465011373145 C 625.7464576700376 6.580531732811016 626.302125771139 8.069214544290238 627.1811742678256 8.131302196158419 C 628.0602227645121 8.1933898480266 626.4085172424213 5.80590754469048 627.6662448612033 5.991409456741856 C 628.9239724799852 6.176911368793232 629.858319703182 7.7890084404556506 630.9543571241715 8.687807932312548 C 632.0503945451609 9.586607424169445 630.9543571241715 8.687807932312548 630.9543571241715 8.687807932312548 C 630.9543571241715 8.687807932312548 629.3665277704292 8.429168871664402 630.9543571241715 8.687807932312548 C 632.5421864779137 8.946446992960695 634.1300158316558 9.205086053608843 635.717845185398 9.46372511425699 C 637.3056745391402 9.722364174905136 633.9606776129182 10.079183500326577 635.717845185398 9.46372511425699 C 637.4750127578778 8.848266728187403 639.1240652467204 7.285742597771683 640.9893479028375 7.617349956048228 C 642.8546305589546 7.948957314324773 639.3945487304478 10.124592821131346 641.3136931537491 10.458547189086627 C 643.2328375770504 10.792501557041907 644.9357518330773 9.232324436304921 646.7467811727415 8.619213059914069 C 648.5578105124057 8.006101683523216 646.4636147946081 7.6198223979784725 646.7467811727415 8.619213059914069 C 647.0299475508749 9.618603721849665 645.5391485650082 11.193877748194902 647.5962803071416 11.617385045720857 C 649.653412049275 12.040892343246812 650.6437237218573 9.463370553232487 652.9181763991415 9.889734952491935 C 655.1926290764258 10.316099351751383 652.273547635305 12.374119469202013 654.4196383389941 12.8964782434992 C 656.5657290426832 13.418837017796386 657.7108451198039 11.936700264755398 659.3564485102088 11.456811275383497 C 661.0020519006137 10.976922286011597 658.5964861321124 10.521399509414293 659.3564485102088 11.456811275383497 C 660.1164108883052 12.392223041352702 659.450303499761 13.632475220828951 661.636335644498 14.263046573291113 C 663.8223677892349 14.893617925753276 663.4269492227505 12.874762240455162 665.9145449444195 13.348525332769986 C 668.4021406660885 13.82228842508481 666.9221495660427 14.936095504106943 669.0991228095048 15.684335850235584 C 671.276096052967 16.432576196364227 669.924882311849 15.112154868451418 672.4454646748059 15.593246371155912 C 674.9660470377627 16.074337873860408 675.2557348238521 16.61615569595135 676.6608698983753 17.127610358349067 C 678.0660049728984 17.639065020746784 675.9470856781492 16.763555492634307 676.6608698983753 17.127610358349067 C 677.3746541186014 17.491665224063826 676.2976618716482 17.742261279423882 678.8022225590535 18.219774955493342 C 681.3067832464587 18.697288631562802 682.3837754934119 18.446692576202743 684.1745519605911 18.560151386557443 C 685.9653284277703 18.673610196912144 681.7349798370492 18.0971150212809 684.1745519605911 18.560151386557443 C 686.614124084133 19.023187751833987 689.053696207675 19.486224117110527 691.4932683312169 19.94926048238707 C 693.9328404547588 20.412296847663615 691.4932683312169 19.94926048238707 691.4932683312169 19.94926048238707 C 691.4932683312169 19.94926048238707 689.1675898505001 19.511591099203944 691.4932683312169 19.94926048238707 C 693.8189468119336 20.3869298655702 696.1446252926503 20.824599248753323 698.470303773367 21.26226863193645 C 700.7959822540838 21.699938015119578 696.3073156548418 20.860839521023575 698.470303773367 21.26226863193645 C 700.6332918918923 21.663697742849326 702.7962800104175 22.065126853762198 704.9592681289428 22.466555964675074 C 707.122256247468 22.86798507558795 704.9592681289428 22.466555964675074 704.9592681289428 22.466555964675074 Z" fill="#1a1a1a" stroke="#1a1a1a" stroke-width="2" stroke-linejoin="round" stroke-linecap="round"/>
<path d="M 29.363892359764883 162.0331048838495 C 29.363892359764883 162.0331048838495 27.811481779518243 161.5745096365019 29.363892359764883 162.0331048838495 C 30.916302940011523 162.4917001311971 32.46871352025816 162.95029537854467 34.0211241005048 163.40889062589227 C 35.573534680751436 163.86748587323987 32.63964464297054 162.79096822914633 34.0211241005048 163.40889062589227 C 35.40260355803906 164.0268130226382 36.78408301557333 164.64473541938412 38.16556247310759 165.26265781613006 C 39.54704193064185 165.880580212876 38.16556247310759 165.26265781613006 38.16556247310759 165.26265781613006 C 38.16556247310759 165.26265781613006 36.86097369306384 164.54433394958377 38.16556247310759 165.26265781613006 C 39.47015125315134 165.98098168267634 40.774740033195094 166.69930554922266 42.079328813238845 167.41762941576894 C 43.3839175932826 168.13595328231523 40.76351917097206 166.66350748493974 42.079328813238845 167.41762941576894 C 43.39513845550563 168.17175134659814 44.71094809777241 168.92587327742737 46.026757740039194 169.67999520825657 C 47.34256738230598 170.43411713908577 46.026757740039194 169.67999520825657 46.026757740039194 169.67999520825657 C 46.026757740039194 169.67999520825657 44.6141125573507 168.9638362952588 46.026757740039194 169.67999520825657 C 47.43940292272769 170.39615412125434 48.85204810541619 171.11231303425208 50.26469328810468 171.82847194724985 C 51.677338470793174 172.54463086024762 50.26469328810468 171.82847194724985 50.26469328810468 171.82847194724985 C 50.26469328810468 171.82847194724985 48.673539732276836 171.2322372150644 50.26469328810468 171.82847194724985 C 51.855846843932525 172.4247066794353 53.44700039976036 173.02094141162073 55.03815395558821 173.61717614380618 C 56.62930751141605 174.21341087599163 53.19437051681484 173.22497796340036 55.03815395558821 173.61717614380618 C 56.88193739436157 174.009374324212 58.725720833134936 174.40157250461777 60.5695042719083 174.7937706850236 C 62.413287710681665 175.1859688654294 60.5695042719083 174.7937706850236 60.5695042719083 174.7937706850236 C 60.5695042719083 174.7937706850236 58.403439111350366 174.68632626745264 60.5695042719083 174.7937706850236 C 62.735569432466235 174.90121510259453 64.90163459302417 175.00865952016548 67.0676997535821 175.11610393773643 C 69.23376491414004 175.22354835530737 64.50785987836365 175.37169303657512 67.0676997535821 175.11610393773643 C 69.62753962880056 174.86051483889773 72.187379504019 174.604925740059 74.74721937923746 174.3493366412203 C 77.30705925445592 174.0937475423816 74.74721937923746 174.3493366412203 74.74721937923746 174.3493366412203 C 74.74721937923746 174.3493366412203 71.74313934685439 175.01251397408197 74.74721937923746 174.3493366412203 C 77.75129941162054 173.68615930835864 80.75537944400362 173.022981975497 83.7594594763867 172.35980464263534 C 86.76353950876977 171.69662730977367 80.91459356208712 173.2856981777898 83.7594594763867 172.35980464263534 C 86.60432539068627 171.43391110748087 89.44919130498583 170.5080175723264 92.2940572192854 169.58212403717192 C 95.13892313358498 168.65623050201745 92.2940572192854 169.58212403717192 92.2940572192854 169.58212403717192 C 92.2940572192854 169.58212403717192 89.8537872559749 170.66790979091763 92.2940572192854 169.58212403717192 C 94.73432718259592 168.4963382834262 97.17459714590642 167.41055252968047 99.61486710921693 166.32476677593476 C 102.05513707252744 165.23898102218905 98.79285703432649 168.24690339757694 99.61486710921693 166.32476677593476 C 100.43687718410737 164.40263015429258 100.02467862530156 161.76571016010766 102.08089733388825 160.5583569110082 C 104.13711604247493 159.35100366190872 104.54931460128073 161.9879236560936 105.78352323497697 162.70270702863633 C 107.01773186867321 163.41749040117904 104.09093024653897 163.99305237827767 105.78352323497697 162.70270702863633 C 107.47611622341496 161.41236167899498 109.16870921185297 160.12201632935367 110.86130220029096 158.83167097971233 C 112.55389518872896 157.541325630071 110.86130220029096 158.83167097971233 110.86130220029096 158.83167097971233 C 110.86130220029096 158.83167097971233 109.51188604352866 160.16623663730184 110.86130220029096 158.83167097971233 C 112.21071835705327 157.49710532212282 113.56013451381557 156.16253966453328 114.90955067057787 154.82797400694378 C 116.25896682734017 153.49340834935427 114.90955067057787 154.82797400694378 114.90955067057787 154.82797400694378 L 112.91091777049176 153.0372197381205 C 112.91091777049176 153.0372197381205 114.19476071094675 151.80690536956072 112.91091777049176 153.0372197381205 C 111.62707483003678 154.2675341066803 110.34323188958179 155.49784847524012 109.0593889491268 156.7281628437999 C 107.77554600867181 157.9584772123597 109.0593889491268 156.7281628437999 109.0593889491268 156.7281628437999 C 109.0593889491268 156.7281628437999 110.67669413274942 155.53057531834312 109.0593889491268 156.7281628437999 C 107.44208376550418 157.9257503692567 105.82477858188156 159.12333789471344 104.20747339825894 160.32092542017023 C 102.59016821463632 161.518512945627 104.73327537949746 160.5203517842325 104.20747339825894 160.32092542017023 C 103.68167141702042 160.12149905610795 104.60404123307332 158.5963130144438 102.63006745454338 159.72264632798343 C 100.65609367601344 160.84897964152304 99.73372385996055 162.3741656831872 98.28555206266913 163.69992536078908 C 96.8373802653777 165.02568503839098 100.63942414174379 162.68357002576246 98.28555206266913 163.69992536078908 C 95.93167998359446 164.7162806958157 93.57780790451979 165.73263603084234 91.22393582544512 166.74899136586896 C 88.87006374637046 167.76534670089558 91.22393582544512 166.74899136586896 91.22393582544512 166.74899136586896 C 91.22393582544512 166.74899136586896 93.98081674901196 165.88158844752562 91.22393582544512 166.74899136586896 C 88.46705490187829 167.6163942842123 85.71017397831143 168.48379720255565 82.95329305474459 169.351200120899 C 80.19641213117775 170.21860303924234 85.85457315342023 168.73916885341598 82.95329305474459 169.351200120899 C 80.05201295606895 169.963231388382 77.15073285739331 170.575262655865 74.24945275871767 171.18729392334802 C 71.34817266004202 171.79932519083104 74.24945275871767 171.18729392334802 74.24945275871767 171.18729392334802 C 74.24945275871767 171.18729392334802 76.66898537744044 170.97313246821983 74.24945275871767 171.18729392334802 C 71.8299201399949 171.40145537847621 69.41038752127213 171.61561683360443 66.99085490254936 171.82977828873263 C 64.57132228382659 172.04393974386082 68.98784565682558 171.93196844549385 66.99085490254936 171.82977828873263 C 64.99386414827313 171.7275881319714 62.9968733939969 171.62539797521015 60.99988263972067 171.52320781844892 C 59.002891885444434 171.4210176616877 60.99988263972067 171.52320781844892 60.99988263972067 171.52320781844892 C 60.99988263972067 171.52320781844892 62.674694658591676 171.87700089261142 60.99988263972067 171.52320781844892 C 59.32507062084966 171.16941474428643 57.65025860197864 170.8156216701239 55.97544658310763 170.4618285959614 C 54.300634564236624 170.1080355217989 57.43028414965166 171.00491335051746 55.97544658310763 170.4618285959614 C 54.520609016563604 169.91874384140536 53.06577145001957 169.37565908684928 51.61093388347554 168.83257433229323 C 50.15609631693151 168.28948957773719 51.61093388347554 168.83257433229323 51.61093388347554 168.83257433229323 C 51.61093388347554 168.83257433229323 52.94353160980367 169.50603469014717 51.61093388347554 168.83257433229323 C 50.27833615714741 168.1591139744393 48.94573843081927 167.48565361658532 47.61314070449114 166.81219325873138 C 46.280542978163005 166.13873290087744 47.61314070449114 166.81219325873138 47.61314070449114 166.81219325873138 C 47.61314070449114 166.81219325873138 48.91368187980304 167.55496193480107 47.61314070449114 166.81219325873138 C 46.31259952917923 166.0694245826617 45.01205835386733 165.32665590659198 43.711517178555425 164.5838872305223 C 42.41097600324352 163.8411185544526 45.06624324656966 165.32669685885915 43.711517178555425 164.5838872305223 C 42.35679111054119 163.84107760218544 41.00206504252695 163.09826797384855 39.647338974512714 162.3554583455117 C 38.292612906498476 161.61264871717484 39.647338974512714 162.3554583455117 39.647338974512714 162.3554583455117 C 39.647338974512714 162.3554583455117 41.13999451743305 163.0198838835702 39.647338974512714 162.3554583455117 C 38.154683431592375 161.69103280745318 36.66202788867204 161.02660726939467 35.169372345751704 160.36218173133616 C 33.676716802831365 159.69775619327766 36.87777304027353 160.8641204106514 35.169372345751704 160.36218173133616 C 33.460971651229876 159.86024305202093 31.75257095670805 159.35830437270573 30.04417026218622 158.8563656933905 C 28.335769567664393 158.35442701407527 30.04417026218622 158.8563656933905 30.04417026218622 158.8563656933905 Z" fill="#1a1a1a" stroke="#1a1a1a" stroke-width="2" stroke-linejoin="round" stroke-linecap="round"/>
<path d="M 120.10351249045787 146.85802385079134 C 120.10351249045787 146.85802385079134 119.67700453950816 148.09544342767376 120.10351249045787 146.85802385079134 C 120.53002044140759 145.62060427390892 120.9565283923573 144.3831846970265 121.38303634330701 143.1457651201441 C 121.80954429425672 141.90834554326167 121.38303634330701 143.1457651201441 121.38303634330701 143.1457651201441 C 121.38303634330701 143.1457651201441 121.21972030765431 144.27000261975988 121.38303634330701 143.1457651201441 C 121.54635237895971 142.0215276205283 121.70966841461241 140.89729012091254 121.87298445026511 139.77305262129676 C 122.0363004859178 138.64881512168097 122.04710564970914 140.8131350236678 121.87298445026511 139.77305262129676 C 121.69886325082108 138.73297021892571 121.52474205137705 137.69288781655467 121.35062085193302 136.65280541418363 C 121.17649965248899 135.6127230118126 121.35062085193302 136.65280541418363 121.35062085193302 136.65280541418363 C 121.35062085193302 136.65280541418363 122.20736257426488 137.31913365132155 121.35062085193302 136.65280541418363 C 120.49387912960115 135.9864771770457 119.63713740726931 135.3201489399078 118.78039568493745 134.65382070276988 C 117.92365396260558 133.98749246563196 118.78039568493745 134.65382070276988 118.78039568493745 134.65382070276988 C 118.78039568493745 134.65382070276988 120.07300736096693 134.89974009455267 118.78039568493745 134.65382070276988 C 117.48778400890797 134.40790131098709 116.19517233287847 134.16198191920432 114.90256065684899 133.91606252742153 C 113.60994898081951 133.67014313563874 116.52709554518738 133.88061221576365 114.90256065684899 133.91606252742153 C 113.2780257685106 133.9515128390794 111.65349088017221 133.98696315073732 110.02895599183383 134.0224134623952 C 108.40442110349544 134.0578637740531 110.02895599183383 134.0224134623952 110.02895599183383 134.0224134623952 C 110.02895599183383 134.0224134623952 111.8818895873044 133.7778232061545 110.02895599183383 134.0224134623952 C 108.17602239636325 134.26700371863592 106.32308880089266 134.5115939748766 104.47015520542209 134.75618423111732 C 102.61722160995151 135.00077448735803 106.42934507846213 134.33829104834956 104.47015520542209 134.75618423111732 C 102.51096533238204 135.17407741388507 100.55177545934201 135.5919705966528 98.59258558630196 136.00986377942056 C 96.63339571326192 136.4277569621883 98.59258558630196 136.00986377942056 98.59258558630196 136.00986377942056 C 98.59258558630196 136.00986377942056 100.52594521755269 135.44723448154636 98.59258558630196 136.00986377942056 C 96.65922595505124 136.57249307729475 94.72586632380052 137.13512237516895 92.7925066925498 137.69775167304314 C 90.85914706129907 138.26038097091734 94.56789962264004 137.02874337412678 92.7925066925498 137.69775167304314 C 91.01711376245954 138.3667599719595 89.24172083236928 139.0357682708759 87.46632790227903 139.70477656979227 C 85.69093497218878 140.37378486870864 87.46632790227903 139.70477656979227 87.46632790227903 139.70477656979227 C 87.46632790227903 139.70477656979227 88.9527465597465 138.9658315426309 87.46632790227903 139.70477656979227 C 85.97990924481157 140.44372159695365 84.49349058734411 141.182666624115 83.00707192987664 141.92161165127638 C 81.52065327240918 142.66055667843776 84.07764256194139 141.14118654989423 83.00707192987664 141.92161165127638 C 81.9365012978119 142.70203675265853 80.86593066574716 143.48246185404065 79.79536003368241 144.2628869554228 C 78.72478940161767 145.04331205680495 79.79536003368241 144.2628869554228 79.79536003368241 144.2628869554228 C 79.79536003368241 144.2628869554228 80.33310449453045 143.4675300833405 79.79536003368241 144.2628869554228 C 79.25761557283438 145.0582438275051 78.71987111198634 145.8536006995874 78.1821266511383 146.64895757166968 C 77.64438219029027 147.44431444375198 78.1821266511383 146.64895757166968 78.1821266511383 146.64895757166968 C 78.1821266511383 146.64895757166968 78.15831238991176 145.8907678245965 78.1821266511383 146.64895757166968 C 78.20594091236485 147.40714731874286 78.22975517359139 148.165337065816 78.25356943481793 148.92352681288918 C 78.27738369604448 149.68171655996235 77.76627314633785 148.29160144722132 78.25356943481793 148.92352681288918 C 78.74086572329801 149.55545217855703 79.2281620117781 150.18737754422492 79.71545830025818 150.81930290989277 C 80.20275458873826 151.45122827556062 79.71545830025818 150.81930290989277 79.71545830025818 150.81930290989277 C 79.71545830025818 150.81930290989277 78.91113620274814 150.2876165797003 79.71545830025818 150.81930290989277 C 80.51978039776822 151.35098924008523 81.32410249527827 151.8826755702777 82.1284245927883 152.41436190047017 C 82.93274669029834 152.94604823066263 81.0945494953228 151.93758573854745 82.1284245927883 152.41436190047017 C 83.16229969025382 152.89113806239288 84.19617478771934 153.3679142243156 85.23004988518485 153.8446903862383 C 86.26392498265037 154.32146654816103 85.23004988518485 153.8446903862383 85.23004988518485 153.8446903862383 C 85.23004988518485 153.8446903862383 84.04923162540815 153.39880288950124 85.23004988518485 153.8446903862383 C 86.41086814496155 154.29057788297538 87.59168640473825 154.73646537971246 88.77250466451495 155.18235287644953 C 89.95332292429165 155.6282403731866 88.77250466451495 155.18235287644953 88.77250466451495 155.18235287644953 C 88.77250466451495 155.18235287644953 87.53090228551389 154.7499753347147 88.77250466451495 155.18235287644953 C 90.01410704351602 155.61473041818437 91.2557094225171 156.0471079599192 92.49731180151817 156.47948550165404 C 93.73891418051923 156.91186304338888 91.28337231870454 156.04532480760494 92.49731180151817 156.47948550165404 C 93.7112512843318 156.91364619570314 94.92519076714542 157.3478068897522 96.13913024995905 157.7819675838013 C 97.35306973277268 158.2161282778504 96.13913024995905 157.7819675838013 96.13913024995905 157.7819675838013 C 96.13913024995905 157.7819675838013 95.04323246580839 157.33222701385716 96.13913024995905 157.7819675838013 C 97.23502803410972 158.23170815374544 98.3309258182604 158.68144872368958 99.42682360241106 159.13118929363372 C 100.52272138656173 159.58092986357786 98.54213235858533 158.6554667545089 99.42682360241106 159.13118929363372 C 100.31151484623679 159.60691183275856 101.19620609006252 160.08263437188336 102.08089733388825 160.5583569110082 C 102.96558857771397 161.03407945013302 102.08089733388825 160.5583569110082 102.08089733388825 160.5583569110082 L 102.63006745454338 159.72264632798343 C 102.63006745454338 159.72264632798343 103.55803374940862 160.2240050173439 102.63006745454338 159.72264632798343 C 101.70210115967814 159.22128763862295 100.77413486481288 158.71992894926245 99.84616856994764 158.21857025990198 C 98.9182022750824 157.7172115705415 100.96336932904828 158.6787737139011 99.84616856994764 158.21857025990198 C 98.728967810847 157.75836680590285 97.61176705174637 157.2981633519037 96.49456629264573 156.83795989790457 C 95.37736553354509 156.37775644390544 96.49456629264573 156.83795989790457 96.49456629264573 156.83795989790457 C 96.49456629264573 156.83795989790457 97.71619257783914 157.27644478083099 96.49456629264573 156.83795989790457 C 95.27294000745232 156.39947501497815 94.0513137222589 155.9609901320517 92.82968743706549 155.5225052491253 C 91.60806115187208 155.08402036619887 94.06814427102262 155.95531359497238 92.82968743706549 155.5225052491253 C 91.59123060310836 155.0896969032782 90.35277376915124 154.65688855743107 89.11431693519411 154.22408021158398 C 87.87586010123698 153.7912718657369 89.11431693519411 154.22408021158398 89.11431693519411 154.22408021158398 C 89.11431693519411 154.22408021158398 90.28007755352216 154.6657576706095 89.11431693519411 154.22408021158398 C 87.94855631686606 153.78240275255845 86.782795698538 153.3407252935329 85.61703508020994 152.89904783450737 C 84.4512744618819 152.45737037548184 85.61703508020994 152.89904783450737 85.61703508020994 152.89904783450737 C 85.61703508020994 152.89904783450737 86.61828474619114 153.36205445410218 85.61703508020994 152.89904783450737 C 84.61578541422875 152.43604121491256 83.61453574824755 151.97303459531776 82.61328608226636 151.51002797572295 C 81.61203641628516 151.04702135612814 83.3546608537404 152.00018101037713 82.61328608226636 151.51002797572295 C 81.87191131079231 151.01987494106876 81.13053653931827 150.5297219064146 80.38916176784423 150.03956887176042 C 79.64778699637019 149.54941583710624 80.38916176784423 150.03956887176042 80.38916176784423 150.03956887176042 C 80.38916176784423 150.03956887176042 80.78016067408102 150.54137821184256 80.38916176784423 150.03956887176042 C 79.99816286160744 149.5377595316783 79.60716395537067 149.03595019159619 79.21616504913388 148.53414085151405 C 78.82516614289709 148.03233151143192 79.22527052855236 149.05141990866846 79.21616504913388 148.53414085151405 C 79.2070595697154 148.01686179435964 79.19795409029692 147.49958273720523 79.18884861087844 146.98230368005082 C 79.17974313145996 146.4650246228964 79.18884861087844 146.98230368005082 79.18884861087844 146.98230368005082 C 79.18884861087844 146.98230368005082 78.73611496069508 147.6290868080226 79.18884861087844 146.98230368005082 C 79.6415822610618 146.33552055207903 80.09431591124515 145.68873742410727 80.54704956142851 145.0419542961355 C 80.99978321161187 144.3951711681637 80.54704956142851 145.0419542961355 80.54704956142851 145.0419542961355 C 80.54704956142851 145.0419542961355 79.541330214222 145.76410020533513 80.54704956142851 145.0419542961355 C 81.55276890863502 144.31980838693585 82.55848825584152 143.59766247773624 83.56420760304803 142.8755165685366 C 84.56992695025454 142.15337065933696 82.11598322784765 143.58701376368208 83.56420760304803 142.8755165685366 C 85.01243197824842 142.1640193733911 86.46065635344881 141.45252217824563 87.9088807286492 140.74102498310015 C 89.35710510384958 140.02952778795466 87.9088807286492 140.74102498310015 87.9088807286492 140.74102498310015 C 87.9088807286492 140.74102498310015 86.16116051546123 141.39171799099105 87.9088807286492 140.74102498310015 C 89.65660094183716 140.09033197520924 91.40432115502513 139.43963896731833 93.15204136821309 138.78894595942742 C 94.89976158140105 138.13825295153651 91.24370068836149 139.33666492563617 93.15204136821309 138.78894595942742 C 95.0603820480647 138.24122699321867 96.9687227279163 137.6935080270099 98.8770634077679 137.14578906080115 C 100.78540408761951 136.5980700945924 98.8770634077679 137.14578906080115 98.8770634077679 137.14578906080115 C 98.8770634077679 137.14578906080115 96.94584874466773 137.5502789721673 98.8770634077679 137.14578906080115 C 100.80827807086808 136.741299149435 102.73949273396826 136.33680923806884 104.67070739706844 135.9323193267027 C 106.60192206016862 135.52782941533656 102.85441517414715 136.14353486742215 104.67070739706844 135.9323193267027 C 106.48699961998973 135.72110378598325 108.30329184291102 135.5098882452638 110.11958406583231 135.29867270454434 C 111.9358762887536 135.0874571638249 110.11958406583231 135.29867270454434 110.11958406583231 135.29867270454434 C 110.11958406583231 135.29867270454434 108.5659547963134 135.27383876544815 110.11958406583231 135.29867270454434 C 111.67321333535122 135.32350664364054 113.22684260487014 135.34834058273677 114.78047187438905 135.37317452183296 C 116.33410114390796 135.39800846092916 113.65586399588207 135.10590873455425 114.78047187438905 135.37317452183296 C 115.90507975289603 135.64044030911168 117.02968763140301 135.90770609639037 118.15429550990999 136.1749718836691 C 119.27890338841696 136.4422376709478 118.15429550990999 136.1749718836691 118.15429550990999 136.1749718836691 C 118.15429550990999 136.1749718836691 117.62464522381242 135.7257012628976 118.15429550990999 136.1749718836691 C 118.68394579600755 136.6242425044406 119.2135960821051 137.07351312521206 119.74324636820266 137.52278374598356 C 120.27289665430023 137.97205436675506 119.74324636820266 137.52278374598356 119.74324636820266 137.52278374598356 C 119.74324636820266 137.52278374598356 119.70208338264706 136.81600634034325 119.74324636820266 137.52278374598356 C 119.78440935375826 138.22956115162387 119.82557233931387 138.93633855726415 119.86673532486947 139.64311596290446 C 119.90789831042507 140.34989336854477 120.06667448918697 138.66767644624363 119.86673532486947 139.64311596290446 C 119.66679616055197 140.6185554795653 119.46685699623445 141.59399499622612 119.26691783191696 142.56943451288694 C 119.06697866759946 143.54487402954777 119.26691783191696 142.56943451288694 119.26691783191696 142.56943451288694 C 119.26691783191696 142.56943451288694 119.70568319493029 141.4749275789129 119.26691783191696 142.56943451288694 C 118.82815246890362 143.66394144686097 118.38938710589031 144.75844838083498 117.95062174287698 145.852955314809 C 117.51185637986364 146.94746224878304 117.95062174287698 145.852955314809 117.95062174287698 145.852955314809 Z" fill="#1a1a1a" stroke="#1a1a1a" stroke-width="2" stroke-linejoin="round" stroke-linecap="round"/>
<path d="M -0.24265353006883383 99.47642750533362 C -0.24265353006883383 99.47642750533362 -6.363881803599213 97.35611588300796 -0.24265353006883383 99.47642750533362 C 5.878574743461545 101.59673912765928 11.999803016991928 103.71705074998495 18.121031290522307 105.83736237231061 C 24.242259564052688 107.95767399463627 12.982415896880756 103.22815308428072 18.121031290522307 105.83736237231061 C 23.259646684163858 108.4465716603405 28.398262077805413 111.0557809483704 33.536877471446964 113.66499023640029 C 38.675492865088515 116.27419952443017 33.536877471446964 113.66499023640029 33.536877471446964 113.66499023640029 C 33.536877471446964 113.66499023640029 28.923354456287875 110.77382121524343 33.536877471446964 113.66499023640029 C 38.15040048660605 116.55615925755714 42.76392350176514 119.44732827871401 47.37744651692423 122.33849729987087 C 51.99096953208332 125.22966632102772 42.83277478384465 119.3682065423816 47.37744651692423 122.33849729987087 C 51.92211825000381 125.30878805736013 56.4667899830834 128.27907881484938 61.011461716162984 131.24936957233865 C 65.55613344924257 134.21966032982792 61.011461716162984 131.24936957233865 61.011461716162984 131.24936957233865 C 61.011461716162984 131.24936957233865 56.085357689092746 128.41556437507623 61.011461716162984 131.24936957233865 C 65.93756574323322 134.08317476960107 70.86366977030346 136.91697996686347 75.7897737973737 139.7507851641259 C 80.71587782444394 142.5845903613883 75.7897737973737 139.7507851641259 75.7897737973737 139.7507851641259 L 78.09009605882753 135.0352098912785 C 78.09009605882753 135.0352098912785 82.99108509356437 137.60915745398736 78.09009605882753 135.0352098912785 C 73.18910702409069 132.46126232856963 68.28811798935386 129.88731476586074 63.387128954617026 127.31336720315187 C 58.486139919880195 124.73941964044299 63.387128954617026 127.31336720315187 63.387128954617026 127.31336720315187 C 63.387128954617026 127.31336720315187 68.02220289043498 130.0851217378622 63.387128954617026 127.31336720315187 C 58.75205501879907 124.54161266844154 54.116981082981106 121.76985813373122 49.48190714716315 118.9981035990209 C 44.84683321134519 116.22634906431057 54.263912265204766 121.7375490259875 49.48190714716315 118.9981035990209 C 44.69990202912153 116.25865817205428 39.91789691107991 113.51921274508767 35.13589179303829 110.77976731812106 C 30.353886674996673 108.04032189115445 35.13589179303829 110.77976731812106 35.13589179303829 110.77976731812106 C 35.13589179303829 110.77976731812106 40.47171685411333 113.24401825783416 35.13589179303829 110.77976731812106 C 29.80006673196325 108.31551637840796 24.464241670888203 105.85126543869487 19.12841660981316 103.38701449898177 C 13.79259154873812 100.92276355926867 25.423670969727937 105.33728550771413 19.12841660981316 103.38701449898177 C 12.833162249898386 101.43674349024941 6.53790788998361 99.48647248151704 0.24265353006883383 97.53620147278468 C -6.052600829845942 95.58593046405232 0.24265353006883383 97.53620147278468 0.24265353006883383 97.53620147278468 Z" fill="#1a1a1a" stroke="#1a1a1a" stroke-width="2" stroke-linejoin="round" stroke-linecap="round"/>
<path d="M 93.02171193862513 147.13390061290684 C 93.02171193862513 147.13390061290684 86.04481699151489 145.2912257141257 93.02171193862513 147.13390061290684 C 99.99860688573537 148.976575511688 106.9755018328456 150.81925041046915 113.95239677995583 152.6619253092503 C 120.92929172706607 154.50460020803146 113.95239677995583 152.6619253092503 113.95239677995583 152.6619253092503 C 113.95239677995583 152.6619253092503 105.33793920250827 151.69945403373632 113.95239677995583 152.6619253092503 C 122.5668543574034 153.6243965847643 131.18131193485095 154.58686786027826 139.79576951229853 155.54933913579225 C 148.41022708974612 156.51181041130624 129.14729860342024 155.767334893178 139.79576951229853 155.54933913579225 C 150.44424042117683 155.3313433784065 161.09271133005512 155.11334762102072 171.74118223893342 154.89535186363497 C 182.3896531478117 154.67735610624922 171.74118223893342 154.89535186363497 171.74118223893342 154.89535186363497 C 171.74118223893342 154.89535186363497 158.83925850734548 156.40854001626224 171.74118223893342 154.89535186363497 C 184.64310597052136 153.3821637110077 197.54502970210933 151.86897555838044 210.44695343369727 150.35578740575318 C 223.34887716528522 148.8425992531259 199.44812899662895 153.29669434879122 210.44695343369727 150.35578740575318 C 221.4457778707656 147.41488046271513 232.44460230783392 144.47397351967712 243.44342674490224 141.53306657663907 C 254.44225118197056 138.59215963360103 243.44342674490224 141.53306657663907 243.44342674490224 141.53306657663907 C 243.44342674490224 141.53306657663907 235.55747815570174 145.621167681265 243.44342674490224 141.53306657663907 C 251.32937533410274 137.44496547201314 259.21532392330323 133.35686436738723 267.1012725125037 129.2687632627613 C 274.9872211017042 125.18066215813538 267.1012725125037 129.2687632627613 267.1012725125037 129.2687632627613 C 267.1012725125037 129.2687632627613 261.5326982230938 134.10883690472127 267.1012725125037 129.2687632627613 C 272.66984680191365 124.42868962080131 278.2384210913235 119.58861597884133 283.80699538073344 114.74854233688134 C 289.37556967014336 109.90846869492135 279.735951062301 119.88985162960006 283.80699538073344 114.74854233688134 C 287.87803969916587 109.60723304416263 291.9490840175983 104.46592375144391 296.0201283360307 99.3246144587252 C 300.09117265446315 94.18330516600648 296.0201283360307 99.3246144587252 296.0201283360307 99.3246144587252 C 296.0201283360307 99.3246144587252 292.58009335294577 104.33550557543963 296.0201283360307 99.3246144587252 C 299.4601633191157 94.31372334201076 302.9001983022006 89.30283222529634 306.34023328528554 84.29194110858191 C 309.7802682683705 79.28104999186748 302.6667433617429 88.79559110657615 306.34023328528554 84.29194110858191 C 310.0137232088282 79.78829111058766 313.6872131323708 75.2846411125934 317.36070305591346 70.78099111459916 C 321.0341929794561 66.27734111660492 317.36070305591346 70.78099111459916 317.36070305591346 70.78099111459916 C 317.36070305591346 70.78099111459916 312.60206913054634 74.47712393533261 317.36070305591346 70.78099111459916 C 322.1193369812806 67.08485829386571 326.87797090664776 63.38872547313225 331.6366048320149 59.692592652398794 C 336.395238757382 55.99645983166534 324.8730546484432 62.32854988165475 331.6366048320149 59.692592652398794 C 338.40015501558656 57.056635423142836 345.1637051991583 54.420678193886886 351.92725538273 51.78472096463093 C 358.69080556630166 49.14876373537497 351.92725538273 51.78472096463093 351.92725538273 51.78472096463093 C 351.92725538273 51.78472096463093 342.1995777714241 53.00636130408734 351.92725538273 51.78472096463093 C 361.65493299403585 50.563080625174514 371.38261060534177 49.34144028571811 381.11028821664763 48.11979994626169 C 390.8379658279535 46.89815960680528 381.11028821664763 48.11979994626169 381.11028821664763 48.11979994626169 C 381.11028821664763 48.11979994626169 368.6111005382928 47.555189661997964 381.11028821664763 48.11979994626169 C 393.60947589500245 48.68441023052542 406.10866357335726 49.24902051478916 418.6078512517121 49.81363079905289 C 431.1070389300669 50.37824108331662 408.8882955132826 47.58503789890733 418.6078512517121 49.81363079905289 C 428.3274069901415 52.042223699198445 438.0469627285709 54.270816599343995 447.76651846700037 56.49940949948955 C 457.4860742054298 58.72800239963511 447.76651846700037 56.49940949948955 447.76651846700037 56.49940949948955 C 447.76651846700037 56.49940949948955 440.98879831662134 52.999514672906955 447.76651846700037 56.49940949948955 C 454.5442386173794 59.99930432607215 461.3219587677584 63.49919915265475 468.09967891813744 66.99909397923734 C 474.87739906851647 70.49898880581995 463.3120746348674 62.54892781266322 468.09967891813744 66.99909397923734 C 472.8872832014075 71.44926014581146 477.67488748467764 75.89942631238559 482.4624917679477 80.3495924789597 C 487.2500960512178 84.79975864553383 482.4624917679477 80.3495924789597 482.4624917679477 80.3495924789597 C 482.4624917679477 80.3495924789597 478.7518866933445 75.21070820455776 482.4624917679477 80.3495924789597 C 486.17309684255093 85.48847675336165 489.8837019171542 90.62736102776358 493.59430699175743 95.76624530216553 C 497.30491206636066 100.90512957656748 490.1180898718694 90.2370113887869 493.59430699175743 95.76624530216553 C 497.07052411164545 101.29547921554416 500.5467412315334 106.82471312892281 504.02295835142144 112.35394704230144 C 507.49917547130946 117.88318095568007 504.02295835142144 112.35394704230144 504.02295835142144 112.35394704230144 C 504.02295835142144 112.35394704230144 499.9303841620239 106.79936879795478 504.02295835142144 112.35394704230144 C 508.11553254081895 117.9085252866481 512.2081067302164 123.46310353099477 516.3006809196139 129.01768177534143 C 520.3932551090114 134.5722600196881 510.7262756165383 123.85612460952278 516.3006809196139 129.01768177534143 C 521.8750862226896 134.17923894116007 527.4494915257651 139.34079610697873 533.0238968288407 144.50235327279736 C 538.5983021319164 149.663910438616 533.0238968288407 144.50235327279736 533.0238968288407 144.50235327279736 C 533.0238968288407 144.50235327279736 525.1450376596546 140.16742104681123 533.0238968288407 144.50235327279736 C 540.9027559980269 148.8372854987835 548.7816151672132 153.1722177247696 556.6604743363994 157.50714995075575 C 564.5393335055855 161.84208217674188 556.6604743363994 157.50714995075575 556.6604743363994 157.50714995075575 C 556.6604743363994 157.50714995075575 545.6773071965508 154.37846899230297 556.6604743363994 157.50714995075575 C 567.6436414762479 160.63583090920852 578.6268086160964 163.76451186766133 589.6099757559449 166.8931928261141 C 600.5931428957934 170.02187378456688 576.7128327738485 165.2907743743224 589.6099757559449 166.8931928261141 C 602.5071187380413 168.4956112779058 615.4042617201377 170.09802972969752 628.3014047022341 171.7004481814892 C 641.1985476843305 173.3028666332809 628.3014047022341 171.7004481814892 628.3014047022341 171.7004481814892 C 628.3014047022341 171.7004481814892 617.6607973830608 171.60233618949314 628.3014047022341 171.7004481814892 C 638.9420120214074 171.79856017348527 649.5826193405808 171.89667216548136 660.2232266597541 171.99478415747743 C 670.8638339789275 172.0928961494735 651.6221467603913 173.19799373808374 660.2232266597541 171.99478415747743 C 668.824306559117 170.7915745768711 677.4253864584797 169.58836499626477 686.0264663578425 168.38515541565846 C 694.6275462572054 167.18194583505215 686.0264663578425 168.38515541565846 686.0264663578425 168.38515541565846 C 686.0264663578425 168.38515541565846 679.0618135860415 170.59454029608062 686.0264663578425 168.38515541565846 C 692.9911191296436 166.1757705352363 699.9557719014446 163.9663856548141 706.9204246732456 161.75700077439194 C 713.8850774450467 159.54761589396978 701.1851310217966 164.6859874947332 706.9204246732456 161.75700077439194 C 712.6557183246947 158.82801405405067 718.3910119761439 155.8990273337094 724.126305627593 152.97004061336813 C 729.861599279042 150.04105389302686 724.126305627593 152.97004061336813 724.126305627593 152.97004061336813 C 724.126305627593 152.97004061336813 719.1998378841341 156.3359495593434 724.126305627593 152.97004061336813 C 729.0527733710518 149.60413166739286 733.9792411145105 146.2382227214176 738.9057088579693 142.87231377544234 C 743.8321766014282 139.50640482946707 738.9057088579693 142.87231377544234 738.9057088579693 142.87231377544234 C 738.9057088579693 142.87231377544234 734.3498778889141 146.4031874005166 738.9057088579693 142.87231377544234 C 743.4615398270246 139.34144015036807 748.0173707960797 135.81056652529378 752.573201765135 132.27969290021952 C 757.1290327341902 128.74881927514525 747.9428740212262 135.72137839303377 752.573201765135 132.27969290021952 C 757.2035295090437 128.83800740740526 761.8338572529524 125.39632191459098 766.4641849968611 121.95463642177673 C 771.0945127407699 118.51295092896247 766.4641849968611 121.95463642177673 766.4641849968611 121.95463642177673 C 766.4641849968611 121.95463642177673 761.312085072394 125.0644319182608 766.4641849968611 121.95463642177673 C 771.6162849213283 118.84484092529266 776.7683848457954 115.73504542880858 781.9204847702625 112.62524993232451 C 787.0725846947297 109.51545443584044 775.7956715099037 115.15995248901699 781.9204847702625 112.62524993232451 C 788.0452980306213 110.09054737563203 794.17011129098 107.55584481893956 800.2949245513388 105.02114226224708 C 806.4197378116976 102.4864397055546 800.2949245513388 105.02114226224708 800.2949245513388 105.02114226224708 L 799.7050754486612 103.11010117528153 C 799.7050754486612 103.11010117528153 805.9967448217476 100.66523637577505 799.7050754486612 103.11010117528153 C 793.4134060755748 105.554965974788 787.1217367024885 107.99983077429448 780.8300673294021 110.44469557380096 C 774.5383979563157 112.88956037330743 786.1524078596516 107.40440771160769 780.8300673294021 110.44469557380096 C 775.5077267991527 113.48498343599422 770.1853862689031 116.5252712981875 764.8630457386537 119.56555916038077 C 759.5407052084042 122.60584702257404 764.8630457386537 119.56555916038077 764.8630457386537 119.56555916038077 C 764.8630457386537 119.56555916038077 769.6282461279457 116.20687462647412 764.8630457386537 119.56555916038077 C 760.0978453493617 122.92424369428743 755.3326449600696 126.2829282281941 750.5674445707776 129.64161276210075 C 745.8022441814857 133.0002972960074 755.19135927062 126.24205902684534 750.5674445707776 129.64161276210075 C 745.9435298709353 133.04116649735616 741.3196151710931 136.44072023261157 736.6957004712508 139.84027396786698 C 732.0717857714085 143.2398277031224 736.6957004712508 139.84027396786698 736.6957004712508 139.84027396786698 C 736.6957004712508 139.84027396786698 741.5963257895992 136.66592755433877 736.6957004712508 139.84027396786698 C 731.7950751529024 143.0146203813952 726.894449834554 146.1889667949234 721.9938245162057 149.36331320845161 C 717.0931991978573 152.53765962197983 721.9938245162057 149.36331320845161 721.9938245162057 149.36331320845161 C 721.9938245162057 149.36331320845161 727.5961011766858 146.66244590455037 721.9938245162057 149.36331320845161 C 716.3915478557255 152.06418051235286 710.7892711952454 154.76504781625414 705.1869945347653 157.4659151201554 C 699.5847178742852 160.16678242405663 711.9335191822285 155.47607664603092 705.1869945347653 157.4659151201554 C 698.4404698873021 159.45575359427986 691.6939452398389 161.44559206840435 684.9474205923757 163.43543054252882 C 678.2008959449125 165.4252690166533 684.9474205923757 163.43543054252882 684.9474205923757 163.43543054252882 C 684.9474205923757 163.43543054252882 693.2942550768247 162.3902767727192 684.9474205923757 163.43543054252882 C 676.6005861079267 164.48058431233844 668.2537516234778 165.52573808214805 659.9069171390288 166.57089185195767 C 651.5600826545798 167.61604562176728 670.3140910254276 166.69550584811125 659.9069171390288 166.57089185195767 C 649.49974325263 166.44627785580408 639.0925693662311 166.32166385965047 628.6853954798323 166.1970498634969 C 618.2782215934335 166.0724358673433 628.6853954798323 166.1970498634969 628.6853954798323 166.1970498634969 C 628.6853954798323 166.1970498634969 641.3629699856683 167.79917809451575 628.6853954798323 166.1970498634969 C 616.0078209739963 164.59492163247802 603.3302464681602 162.99279340145915 590.6526719623242 161.3906651704403 C 577.9750974564882 159.78853693942142 601.2657331248184 164.43869816772207 590.6526719623242 161.3906651704403 C 580.03961079983 158.3426321731585 569.4265496373359 155.29459917587675 558.8134884748417 152.24656617859497 C 548.2004273123475 149.1985331813132 558.8134884748417 152.24656617859497 558.8134884748417 152.24656617859497 C 558.8134884748417 152.24656617859497 566.2731661432063 156.37843594084353 558.8134884748417 152.24656617859497 C 551.3538108064772 148.11469641634642 543.8941331381128 143.98282665409783 536.4344554697483 139.85095689184928 C 528.9747778013838 135.71908712960072 536.4344554697483 139.85095689184928 536.4344554697483 139.85095689184928 C 536.4344554697483 139.85095689184928 541.6671552538567 144.7341585076246 536.4344554697483 139.85095689184928 C 531.2017556856399 134.96775527607394 525.9690559015314 130.08455366029858 520.736356117423 125.20135204452325 C 515.5036563333147 120.3181504287479 524.6457149792682 130.55735813598892 520.736356117423 125.20135204452325 C 516.8269972555779 119.84534595305757 512.9176383937327 114.48933986159192 509.00827953188747 109.13333377012624 C 505.0989206700423 103.77732767866057 509.00827953188747 109.13333377012624 509.00827953188747 109.13333377012624 C 509.00827953188747 109.13333377012624 512.4550831417263 114.66837850763756 509.00827953188747 109.13333377012624 C 505.56147592204866 103.59828903261493 502.11467231220985 98.06324429510363 498.66786870237104 92.52819955759232 C 495.2210650925322 86.993154820081 502.5276317504042 97.89515701001702 498.66786870237104 92.52819955759232 C 494.80810565433785 87.16124210516762 490.9483426063047 81.7942846527429 487.08857955827153 76.4273272003182 C 483.22881651023835 71.0603697478935 487.08857955827153 76.4273272003182 487.08857955827153 76.4273272003182 C 487.08857955827153 76.4273272003182 492.24495050497273 81.21243459736661 487.08857955827153 76.4273272003182 C 481.93220861157033 71.6422198032698 476.77583766486913 66.85711240622139 471.6194667181679 62.072005009172976 C 466.4630957714667 57.28689761212457 478.8855886195205 65.82468434386792 471.6194667181679 62.072005009172976 C 464.35334481681537 58.31932567447804 457.08722291546275 54.566646339783105 449.8211010141102 50.813967005088166 C 442.5549791127576 47.06128767039323 449.8211010141102 50.813967005088166 449.8211010141102 50.813967005088166 C 449.8211010141102 50.813967005088166 459.9715138635981 53.14311762473432 449.8211010141102 50.813967005088166 C 439.6706881646223 48.48481638544201 429.5202753151343 46.15566576579586 419.3698624656464 43.8265151461497 C 409.2194496161585 41.497364526503546 432.18915059886405 44.402843666042976 419.3698624656464 43.8265151461497 C 406.55057433242877 43.25018662625643 393.7312861992112 42.67385810636316 380.91199806599354 42.09752958646989 C 368.0927099327759 41.521201066576616 380.91199806599354 42.09752958646989 380.91199806599354 42.09752958646989 C 380.91199806599354 42.09752958646989 391.0542890426049 40.81521120221922 380.91199806599354 42.09752958646989 C 370.76970708938217 43.37984797072056 360.62741611277085 44.66216635497124 350.48512513615947 45.94448473922191 C 340.3428341595481 47.226803123472585 350.48512513615947 45.94448473922191 350.48512513615947 45.94448473922191 C 350.48512513615947 45.94448473922191 357.7654170043194 43.097522203876444 350.48512513615947 45.94448473922191 C 343.20483326799956 48.79144727456738 335.92454139983965 51.63840980991285 328.64424953167975 54.48537234525832 C 321.36395766351984 57.33233488060379 333.8295908362839 50.45574761991376 328.64424953167975 54.48537234525832 C 323.4589082270756 58.51499707060288 318.27356692247145 62.54462179594745 313.0882256178673 66.57424652129201 C 307.90288431326314 70.60387124663657 313.0882256178673 66.57424652129201 313.0882256178673 66.57424652129201 C 313.0882256178673 66.57424652129201 316.98510381696104 61.845424451149405 313.0882256178673 66.57424652129201 C 309.19134741877355 71.30306859143461 305.29446921967985 76.03189066157722 301.3975910205861 80.76071273171982 C 297.50071282149236 85.48953480186242 304.88057676722804 75.76854051765626 301.3975910205861 80.76071273171982 C 297.9146052739442 85.75288494578338 294.4316195273023 90.74505715984692 290.9486337806604 95.73722937391048 C 287.46564803401844 100.72940158797404 290.9486337806604 95.73722937391048 290.9486337806604 95.73722937391048 C 290.9486337806604 95.73722937391048 294.8795225134707 90.84100733262783 290.9486337806604 95.73722937391048 C 287.01774504785004 100.63345141519314 283.0868563150397 105.5296734564758 279.1559675822294 110.42589549775846 C 275.22507884941905 115.32211753904112 284.39449838000337 105.93009306191144 279.1559675822294 110.42589549775846 C 273.9174367844554 114.92169793360549 268.67890598668134 119.41750036945253 263.44037518890735 123.91330280529955 C 258.20184439113336 128.4091052411466 263.44037518890735 123.91330280529955 263.44037518890735 123.91330280529955 C 263.44037518890735 123.91330280529955 270.8929634372575 120.10330634773052 263.44037518890735 123.91330280529955 C 255.98778694055719 127.72329926286858 248.53519869220705 131.5332957204376 241.08261044385688 135.34329217800664 C 233.6300221955067 139.15328863557568 241.08261044385688 135.34329217800664 241.08261044385688 135.34329217800664 C 241.08261044385688 135.34329217800664 251.68001430913128 132.5600033338795 241.08261044385688 135.34329217800664 C 230.48520657858248 138.12658102213376 219.88780271330805 140.90986986626086 209.29039884803365 143.693158710388 C 198.69299498275925 146.47644755451512 221.96319260437812 142.2537123584138 209.29039884803365 143.693158710388 C 196.61760509168917 145.1326050623622 183.9448113353447 146.57205141433639 171.27201757900022 148.01149776631058 C 158.59922382265574 149.45094411828478 171.27201757900022 148.01149776631058 171.27201757900022 148.01149776631058 C 171.27201757900022 148.01149776631058 181.6713278756941 147.84284239171024 171.27201757900022 148.01149776631058 C 160.87270728230635 148.18015314091093 150.47339698561248 148.34880851551128 140.0740866889186 148.51746389011163 C 129.67477639222474 148.68611926471198 148.40754349528285 149.2855275200575 140.0740866889186 148.51746389011163 C 131.74062988255437 147.74940026016574 123.40717307619012 146.9813366302199 115.07371626982588 146.213273000274 C 106.74025946346164 145.44520937032812 115.07371626982588 146.213273000274 115.07371626982588 146.213273000274 C 115.07371626982588 146.213273000274 121.80799874197984 147.77259566809428 115.07371626982588 146.213273000274 C 108.33943379767192 144.65395033245372 101.60515132551794 143.09462766463344 94.87086885336397 141.53530499681315 C 88.13658638121001 139.97598232899287 94.87086885336397 141.53530499681315 94.87086885336397 141.53530499681315 Z" fill="#1a1a1a" stroke="#1a1a1a" stroke-width="2" stroke-linejoin="round" stroke-linecap="round"/>
<g><path d="M 6.984813717176122 100.25341990555475 C 2.473262032298959 103.45434186565969 -4.511551684877163 101.70723644916409 -6.984813717176122 96.75920907256355 C -2.473262032298959 93.55828711245861 4.511551684877163 95.30539252895421 6.984813717176122 100.25341990555475 Z" fill="#1a1a1a" stroke="#1a1a1a" stroke-width="2" stroke-linejoin="round"/><circle cx="1.687786184637196" cy="100.66023598134892" r="0.96" fill="#1a1a1a" stroke="none"/></g>
</svg>